<?xml version="1.0" standalone="no"?>
<!DOCTYPE svg PUBLIC "-//W3C//DTD SVG 20010904//EN"
 "http://www.w3.org/TR/2001/REC-SVG-20010904/DTD/svg10.dtd">
<svg version="1.0" xmlns="http://www.w3.org/2000/svg"
 width="500.000000pt" height="500.000000pt" viewBox="0 0 500.000000 500.000000"
 preserveAspectRatio="xMidYMid meet">
<metadata>
Created by potrace 1.14, written by Peter Selinger 2001-2017
</metadata>
<g transform="translate(0.000000,500.000000) scale(0.100000,-0.100000)"
fill="#000000" stroke="none">
<path d="M2215 4739 c-27 -5 -72 -11 -99 -14 -178 -21 -433 -109 -591 -203
-209 -124 -354 -271 -502 -507 -60 -96 -146 -320 -181 -470 -50 -217 -52 -260
-46 -1395 7 -1450 10 -1755 18 -1768 11 -18 1196 -17 1197 1 0 6 1 401 3 877
2 476 6 885 10 910 8 57 43 176 63 215 27 54 84 115 125 136 169 86 332 -46
374 -303 4 -23 8 -288 9 -588 1 -300 5 -574 9 -610 34 -288 209 -546 453 -669
64 -33 159 -68 203 -76 14 -3 36 -8 50 -11 58 -14 256 -13 320 1 198 46 349
128 471 255 72 77 115 154 105 193 -3 15 -18 30 -37 37 -52 22 -149 88 -185
128 -69 73 -126 215 -153 372 -22 134 -24 188 -26 750 -1 316 -5 604 -9 640
-35 302 -163 543 -376 702 -129 97 -295 147 -472 143 -360 -9 -594 -111 -789
-345 -52 -63 -104 -139 -113 -167 -4 -10 -15 -29 -25 -42 -18 -24 -19 -20 -16
255 2 217 6 296 19 356 77 358 345 541 776 532 336 -7 540 -94 799 -340 131
-126 166 -148 209 -133 17 6 34 20 38 32 21 65 -18 258 -77 383 -81 170 -263
370 -448 489 -149 96 -337 174 -496 206 -83 17 -88 18 -130 24 -62 10 -424 13
-480 4z"/>
</g>
</svg>
