<svg width="72" height="31" viewBox="0 0 72 31" fill="none" xmlns="http://www.w3.org/2000/svg">
<path d="M34.6856 22.1842C34.6856 21.0171 34.6777 19.4349 34.6666 17.7852C34.64 13.8551 34.5951 9.54124 34.5951 9.54124C34.5951 9.39288 34.4744 9.39288 34.4744 9.39288H28.6511C28.6511 9.39288 28.5305 9.39288 28.5305 9.54124C28.5305 9.54124 28.6088 13.4292 28.5305 17.7022C28.47 20.9967 25.6283 20.8799 25.6283 17.9121V13.3104C25.6283 10.5206 23.6369 8.79938 21.1931 8.79938C19.5033 8.79938 17.873 9.9567 17.5409 10.9065C17.2692 11.7077 19.5637 10.6987 19.5637 15.4175V19.8692C19.5637 22.837 21.4645 24.7662 23.6973 24.7662C25.2964 24.7662 27.3514 24.4091 28.5908 21.8568C28.5908 22.8955 28.6375 23.3724 28.5908 24.2913C28.4776 26.5183 27.1096 27.679 24.6929 27.679C21.3137 27.679 20.4387 25.42 19.7146 25.3011C19.3826 25.2417 19.0807 25.5092 19.5637 26.9656C19.9258 28.0941 21.9473 31 26.3538 31C31.9399 31 34.8667 27.3223 34.6856 22.1842ZM54.8329 12.1254C54.8329 13.2924 54.8409 14.8745 54.852 16.5243C54.8786 20.4544 54.9234 24.7682 54.9234 24.7682C54.9234 24.9167 55.0441 24.9167 55.0441 24.9167H60.8674C60.8674 24.9167 60.9881 24.9167 60.9881 24.7682C60.9881 24.7682 60.9097 20.8803 60.9881 16.6073C61.0486 13.3128 63.8902 13.4296 63.8902 16.3975V20.9991C63.8902 23.7889 65.8817 25.5102 68.3255 25.5102C70.0153 25.5102 71.6455 24.3528 71.9776 23.4031C72.2494 22.6018 69.9549 23.6108 69.9549 18.892V14.4402C69.9549 11.4724 68.054 9.54337 65.8213 9.54337C64.2221 9.54337 62.1672 9.90034 60.9278 12.4527C60.9278 11.4139 60.8811 10.9371 60.9278 10.0182C61.041 7.79112 62.409 6.6305 64.8256 6.6305C68.2048 6.6305 69.0798 8.88951 69.804 9.00835C70.136 9.06782 70.4379 8.80035 69.9549 7.34392C69.5928 6.2154 67.5713 3.30955 63.1647 3.30955C57.5787 3.30955 54.6518 6.98721 54.8329 12.1254ZM18.141 21.3523C15.5754 20.1947 13.5538 18.532 12.4072 15.8603C15.4245 14.6432 16.6314 11.6157 16.6314 9.32995C16.6314 4.96625 12.7392 2.68049 8.09118 2.53214C3.53233 2.38369 0.150973 3.42262 0.150973 3.42262C0.150973 3.42262 0 3.42262 0 3.57106V24.113C0 24.2912 0.150973 24.2912 0.150973 24.2912H6.49105C6.49105 24.2912 6.61182 24.2912 6.61182 24.113V16.1575H7.48648C7.90875 21.293 9.62831 25.4786 14.3682 24.9442C17.2363 24.6177 18.4429 21.4414 18.141 21.3523ZM52.2557 18.0579L52.4607 9.51164C52.4607 9.39297 52.3399 9.36337 52.3399 9.36337H46.3055C46.3055 9.36337 46.1544 9.39297 46.1544 9.54124V11.5873C45.2176 9.9263 43.7371 8.76969 41.6523 8.76969C37.6998 8.76969 35.5877 12.7438 35.5877 16.8125C35.5877 20.7921 37.6998 24.9145 41.5015 24.9145C43.6162 24.9145 45.2479 23.491 46.2753 21.5632C46.6675 23.6678 48.2968 24.9442 50.3787 24.9442C52.0682 24.9442 53.6985 23.7865 54.0004 22.8366C54.3023 22.0351 52.2557 22.7778 52.2557 18.0579ZM44.0694 20.8218C42.5889 20.8218 41.8032 19.0398 41.8032 16.8125C41.8032 14.585 42.5889 12.7734 44.0694 12.7734C45.55 12.7734 46.3357 14.585 46.3357 16.8125C46.3357 19.0398 45.55 20.8218 44.0694 20.8218ZM6.61182 6.2714C8.87389 5.91522 11.0616 7.10419 10.9845 9.32933C10.8941 11.9408 9.02469 12.5666 6.61182 12.5666V6.2714ZM32.6487 0.229576V6.77344C32.6487 7.56347 33.3208 8.47662 34.2435 8.47662C34.8815 8.47662 35.6773 8.12729 35.8918 7.59334C35.9052 7.02757 35.0409 7.75947 35.0409 5.97789C35.0409 5.20465 35.0295 0.229576 35.0295 0.229576C35.0409 0.173576 34.984 0.173576 34.984 0.173576H32.7057C32.7057 0.173576 32.6487 0.173576 32.6487 0.229576ZM31.6785 5.9778C31.6785 5.20376 31.7582 2.65027 31.7582 2.65027C31.7582 2.60547 31.7127 2.59427 31.7127 2.59427H29.4345C29.4345 2.59427 29.3774 2.60547 29.3774 2.66147V3.43391C29.0238 2.8068 28.4648 2.37018 27.6778 2.37018C26.1855 2.37018 25.3881 3.87053 25.3881 5.4066C25.3881 6.90899 26.1855 8.46542 27.6208 8.46542C28.4192 8.46542 29.0352 7.92792 29.4231 7.2001C29.5712 7.99467 30.1863 8.47662 30.9722 8.47662C31.7886 8.47662 32.3499 8.12729 32.5181 7.6809C32.632 7.37832 31.6787 7.75929 31.6785 5.9778ZM52.3432 5.97789C52.3432 5.20376 52.423 2.65027 52.423 2.65027C52.423 2.60547 52.3774 2.59427 52.3774 2.59427H50.0992C50.0992 2.59427 50.0422 2.60547 50.0422 2.66147V3.43391C49.6885 2.8068 49.1296 2.37018 48.3425 2.37018C46.8503 2.37018 46.0529 3.87053 46.0529 5.4066C46.0529 6.90899 46.8503 8.46542 48.2856 8.46542C49.0839 8.46542 49.6999 7.92792 50.0878 7.2001C50.2359 7.99467 50.851 8.47662 51.637 8.47662C52.2749 8.47662 52.8903 8.03956 53.0043 7.6809C53.1182 7.37832 52.3434 7.75929 52.3432 5.97789ZM45.3448 5.94438V4.19648C45.3448 3.07604 44.6271 2.34769 43.7728 2.34769C43.1691 2.34769 42.3819 2.43187 41.9139 3.41791C41.7317 2.58876 41.1166 2.34769 40.399 2.34769C39.8066 2.34769 38.9416 2.5196 38.563 3.54857C38.3143 2.56636 37.7998 2.34769 37.0023 2.34769C36.3644 2.34769 35.749 2.78476 35.6351 3.14324C35.5109 3.53355 36.2961 3.06484 36.2961 4.84634C36.2961 5.6194 36.2164 8.17405 36.2164 8.17405C36.2164 8.21885 36.2619 8.23005 36.2619 8.23005H38.5402C38.5402 8.23005 38.5971 8.21885 38.5971 8.16285V5.16003C38.5971 3.83799 39.6699 3.70902 39.6699 4.82945C39.6699 5.07594 39.6813 5.09283 39.6699 5.36171C39.6586 6.09006 39.6813 8.17405 39.6813 8.17405C39.6699 8.21885 39.7269 8.23005 39.7269 8.23005H42.0052C42.0052 8.23005 42.0623 8.21885 42.0623 8.16285C42.0623 8.16285 41.971 6.09006 41.971 5.36171V5.16003C41.971 3.83799 43.0438 3.79675 43.0438 4.91718V6.73984C43.0438 7.79316 43.807 8.44302 44.7182 8.44302C45.3562 8.44302 46.0609 7.91832 46.1863 7.57094C46.3312 7.16952 45.3448 7.72587 45.3448 5.94438ZM19.4269 6.52659C19.4269 7.91627 20.2244 8.40009 21.147 8.40009C21.8306 8.40009 22.8211 8.15894 22.9424 7.40454C22.9953 7.07539 21.9901 7.6473 21.9331 5.87655V5.3386C25.0111 5.46189 25.7515 3.77106 25.7515 2.57187C25.7515 0.924415 24.2478 0.0614883 22.4922 0.00548874C20.7711 -0.0505997 19.4953 0.341664 19.4953 0.341664C19.4953 0.341664 19.4383 0.341664 19.4383 0.397663L19.4269 6.52659ZM49.255 6.92019C48.6961 6.92019 48.3995 6.24748 48.3995 5.4066C48.3995 4.56563 48.6961 3.88173 49.255 3.88173C49.814 3.88173 49.9322 4.58243 49.9322 5.4234C49.9322 6.26428 49.814 6.92019 49.255 6.92019ZM28.5903 6.92019C28.0313 6.92019 27.7347 6.24748 27.7347 5.4066C27.7347 4.56563 28.0313 3.88173 28.5903 3.88173C29.1493 3.88173 29.3567 4.56563 29.3567 5.4066C29.3567 6.24748 29.1493 6.92019 28.5903 6.92019ZM23.5605 2.59516C23.5605 3.67639 22.6674 4.01026 21.9331 4.01026V1.21579C22.7888 1.0813 23.5605 1.75454 23.5605 2.59516Z" fill="white"/>
</svg>
